HIERARCHY
ROOT hip
{
  OFFSET 0 0 0
  CHANNELS 6 Xposition Yposition Zposition Zrotation Yrotation Xrotation
  JOINT abdomen
  {
    OFFSET 0 20.6881 -0.73152
    CHANNELS 3 Zrotation Xrotation Yrotation
    JOINT chest
    {
      OFFSET 0 11.7043 -0.48768
      CHANNELS 3 Zrotation Xrotation Yrotation
      JOINT neck
      {
        OFFSET 0 22.1894 -2.19456
        CHANNELS 3 Zrotation Xrotation Yrotation
        JOINT head
        {
          OFFSET -0.24384 7.07133 1.2192
          CHANNELS 3 Zrotation Xrotation Yrotation
          JOINT leftEye
          {
            OFFSET 4.14528 8.04674 8.04672
            CHANNELS 3 Zrotation Xrotation Yrotation
            End Site
            {
              OFFSET 1 0 0
            }
          }
          JOINT rightEye
          {
            OFFSET -3.6576 8.04674 8.04672
            CHANNELS 3 Zrotation Xrotation Yrotation
            End Site
            {
              OFFSET 1 0 0
            }
          }
        }
      }
      JOINT rCollar
      {
        OFFSET -2.68224 19.2634 -4.8768
        CHANNELS 3 Zrotation Xrotation Yrotation
        JOINT rShldr
        {
          OFFSET -8.77824 -1.95073 1.46304
          CHANNELS 3 Zrotation Xrotation Yrotation
          JOINT rForeArm
          {
            OFFSET -28.1742 -1.7115 0.48768
            CHANNELS 3 Zrotation Xrotation Yrotation
            JOINT rHand
            {
              OFFSET -22.5879 0.773209 7.07136
              CHANNELS 3 Zrotation Xrotation Yrotation
              JOINT rThumb1
              {
                OFFSET -1.2192 -0.487915 3.41376
                CHANNELS 3 Zrotation Xrotation Yrotation
                JOINT rThumb2
                {
                  OFFSET -3.37035 -0.52449 3.41376
                  CHANNELS 3 Zrotation Xrotation Yrotation
                  End Site
                  {
                    OFFSET -1.78271 -1.18214 1.43049
                  }
                }
              }
              JOINT rIndex1
              {
                OFFSET -7.75947 0.938293 5.60832
                CHANNELS 3 Zrotation Xrotation Yrotation
                JOINT rIndex2
                {
                  OFFSET -2.54057 -0.884171 1.56538
                  CHANNELS 3 Zrotation Xrotation Yrotation
                  End Site
                  {
                    OFFSET -1.62519 -0.234802 1.16502
                  }
                }
              }
              JOINT rMid1
              {
                OFFSET -8.24714 1.18213 3.41376
                CHANNELS 3 Zrotation Xrotation Yrotation
                JOINT rMid2
                {
                  OFFSET -3.10165 -0.590103 1.0647
                  CHANNELS 3 Zrotation Xrotation Yrotation
                  End Site
                  {
                    OFFSET -2.48547 -0.328903 0.83742
                  }
                }
              }
              JOINT rRing1
              {
                OFFSET -8.82822 0.546677 1.51678
                CHANNELS 3 Zrotation Xrotation Yrotation
                JOINT rRing2
                {
                  OFFSET -2.60934 -0.819778 -0.0198488
                  CHANNELS 3 Zrotation Xrotation Yrotation
                  End Site
                  {
                    OFFSET -2.33842 -0.294052 0.168128
                  }
                }
              }
              JOINT rPinky1
              {
                OFFSET -8.27202 -0.0477905 -0.4584
                CHANNELS 3 Zrotation Xrotation Yrotation
                JOINT rPinky2
                {
                  OFFSET -1.82734 -0.647385 -0.700984
                  CHANNELS 3 Zrotation Xrotation Yrotation
                  End Site
                  {
                    OFFSET -1.69225 -0.51767 -0.607171
                  }
                }
              }
            }
          }
        }
      }
      JOINT lCollar
      {
        OFFSET 2.68224 19.2634 -4.8768
        CHANNELS 3 Zrotation Xrotation Yrotation
        JOINT lShldr
        {
          OFFSET 8.77824 -1.95073 1.46304
          CHANNELS 3 Zrotation Xrotation Yrotation
          JOINT lForeArm
          {
            OFFSET 28.1742 -1.7115 0.48768
            CHANNELS 3 Zrotation Xrotation Yrotation
            JOINT lHand
            {
              OFFSET 22.5879 0.773209 7.07136
              CHANNELS 3 Zrotation Xrotation Yrotation
              JOINT lThumb1
              {
                OFFSET 1.2192 -0.487915 3.41376
                CHANNELS 3 Zrotation Xrotation Yrotation
                JOINT lThumb2
                {
                  OFFSET 3.37035 -0.52449 3.41376
                  CHANNELS 3 Zrotation Xrotation Yrotation
                  End Site
                  {
                    OFFSET 1.78271 -1.18214 1.43049
                  }
                }
              }
              JOINT lIndex1
              {
                OFFSET 7.75947 0.938293 5.60832
                CHANNELS 3 Zrotation Xrotation Yrotation
                JOINT lIndex2
                {
                  OFFSET 2.54057 -0.884171 1.56538
                  CHANNELS 3 Zrotation Xrotation Yrotation
                  End Site
                  {
                    OFFSET 1.62519 -0.234802 1.16502
                  }
                }
              }
              JOINT lMid1
              {
                OFFSET 8.24714 1.18213 3.41376
                CHANNELS 3 Zrotation Xrotation Yrotation
                JOINT lMid2
                {
                  OFFSET 3.10165 -0.590103 1.0647
                  CHANNELS 3 Zrotation Xrotation Yrotation
                  End Site
                  {
                    OFFSET 2.48547 -0.328903 0.83742
                  }
                }
              }
              JOINT lRing1
              {
                OFFSET 8.82822 0.546677 1.51678
                CHANNELS 3 Zrotation Xrotation Yrotation
                JOINT lRing2
                {
                  OFFSET 2.60934 -0.819778 -0.0198488
                  CHANNELS 3 Zrotation Xrotation Yrotation
                  End Site
                  {
                    OFFSET 2.33842 -0.294052 0.168128
                  }
                }
              }
              JOINT lPinky1
              {
                OFFSET 8.27202 -0.0477905 -0.4584
                CHANNELS 3 Zrotation Xrotation Yrotation
                JOINT lPinky2
                {
                  OFFSET 1.82734 -0.647385 -0.700984
                  CHANNELS 3 Zrotation Xrotation Yrotation
                  End Site
                  {
                    OFFSET 1.69225 -0.51767 -0.607171
                  }
                }
              }
            }
          }
        }
      }
    }
  }
  JOINT rButtock
  {
    OFFSET -8.77824 4.35084 1.2192
    CHANNELS 3 Zrotation Xrotation Yrotation
    JOINT rThigh
    {
      OFFSET 0 -1.70687 -2.19456
      CHANNELS 3 Zrotation Xrotation Yrotation
      JOINT rShin
      {
        OFFSET 0 -36.8199 0.73152
        CHANNELS 3 Zrotation Xrotation Yrotation
        JOINT rFoot
        {
          OFFSET 0.73152 -45.1104 -5.12064
          CHANNELS 3 Zrotation Xrotation Yrotation
          End Site
          {
            OFFSET -1.1221 -3.69964 12.103
          }
        }
      }
    }
  }
  JOINT lButtock
  {
    OFFSET 8.77824 4.35084 1.2192
    CHANNELS 3 Zrotation Xrotation Yrotation
    JOINT lThigh
    {
      OFFSET 0 -1.70687 -2.19456
      CHANNELS 3 Zrotation Xrotation Yrotation
      JOINT lShin
      {
        OFFSET 0 -36.8199 0.73152
        CHANNELS 3 Zrotation Xrotation Yrotation
        JOINT lFoot
        {
          OFFSET -0.73152 -45.1104 -5.12064
          CHANNELS 3 Zrotation Xrotation Yrotation
          End Site
          {
            OFFSET 1.1221 -3.69964 12.103
          }
        }
      }
    }
  }
}
MOTION
Frames:	6
Frame Time:	0.00833333
41.897 78.7964 -25.8822 -177.743915 -55.043516 -178.714327 -1.200508 -4.447127 155.683418 -4.065753 -4.142126 -167.049181 11.097446 24.745455 122.354563 -28.776642 25.996088 -88.115905 1.019726 0.013321 1.496862 3.571705 0.016016 0.513662 -14.2385 43.74386 16.003884 -97.140997 -27.243176 154.601627 -0.277478 -30.05374 -140.902265 161.404288 -30.909748 139.953242 -166.128909 -1.607097 90.352635 21.00156 -54.48161 23.526113 -133.007786 18.659275 109.771683 -152.38475 5.047158 119.185874 -162.567149 -7.405923 145.529498 -162.317852 -5.854042 145.971388 -147.574766 -5.001421 -175.793508 -145.813913 -26.770315 -171.826861 9.722292 38.50614 8.341348 -143.914185 -1.527725 -139.46526 151.043544 21.998716 -155.811475 115.528655 -65.197441 71.441764 -65.256303 45.757908 130.268112 141.371946 45.272546 -115.792755 13.045708 11.465642 -1.744893 158.173184 -62.670693 -109.635371 15.082746 22.267412 -9.43201 162.512139 -12.493644 -111.288379 10.881505 25.715067 -8.127789 -172.384219 -63.682839 -141.047136 145.412488 -1.421787 178.437361 40.680287 -72.597091 65.377791 -7.913238 26.230287 -10.152419 -0.946332 0.279302 -0.267061 0.016123 -0.491309 1.879639 -1.19883 -43.347531 -180.0 0.015059 -58.402854 89.754248 -1.355691 -46.006758 92.608357 -0.687884 -1.734085 -0.338957 0.605332 -20.799901 -178.295786 9.392715 -40.336583 -136.655175 66.936836 -27.709724 -18.294009
41.539300000000004 78.4101 -25.613599999999998 -178.795949 -56.279315 -177.337671 -0.857272 -0.160634 -0.038126 4.006174 -2.525107 -12.744689 8.923718 13.555032 56.792658 -26.231646 -9.545542 -30.853803 2.609247 0.012572 0.552017 4.722951 0.020356 0.49361 -43.536809 64.420726 46.288475 63.309013 16.708941 53.329358 8.95111 -34.398921 110.170604 -9.563065 34.974069 2.062376 -169.331328 -5.214339 90.233673 10.043221 -52.799508 18.833756 -160.648836 -31.643344 125.028542 -8.253074 36.408019 5.528708 -41.586826 55.705309 33.227615 -165.151131 -4.882797 143.604387 -2.986005 13.814709 2.292498 -163.638717 -35.800275 171.958817 39.426048 83.26078 -3.88707 14.882459 44.089225 7.895269 9.906809 34.93657 -10.546572 103.845827 12.47288 -93.559317 110.67212 -18.287295 154.478858 -139.444912 -81.903402 -117.095591 81.389782 40.259435 -43.877291 -11.487934 -19.890403 -21.030198 161.759138 -37.139732 -124.593277 90.452032 54.540039 -72.422416 -1.477632 -3.809447 0.184813 43.902798 58.894024 -33.993686 72.78472 -72.436659 88.570576 -17.654188 -3.444612 3.424464 143.057327 7.945563 143.892967 93.423887 -49.406966 93.170066 -2.147666 -1.507457 -0.0 2.638076 -42.969258 1.837167 -0.328796 62.163317 -121.645206 171.217784 74.630025 -90.768065 -0.17973 -2.688832 0.222398 -1.883142 -17.39124 -6.27738 -15.285811 45.118522 140.569288 -61.554891 -54.594032 -154.257096
40.956399999999995 78.298 -25.3934 -179.758297 -57.40929 -176.023863 -0.252466 -0.706401 -19.667352 3.234801 -1.29227 5.231221 3.398294 10.177308 19.180916 -8.944531 -23.455964 7.434 2.725337 -0.046074 -1.936707 5.756167 0.031942 0.635352 -143.819344 38.412073 148.484897 -19.186315 -16.832848 71.988252 -155.998692 -43.272121 -59.18871 -2.058145 12.219233 0.513102 81.363287 -50.604073 33.204104 -138.750356 20.319176 98.27187 -110.229255 36.328484 92.689905 -86.68748 56.769634 66.957803 88.272139 -82.511529 59.864948 -43.526701 57.385602 38.235712 -3.011511 -2.378511 -2.069006 -157.785408 -2.954229 167.82424 -159.331995 53.342135 -149.598834 -160.593291 52.278279 -149.036009 144.274896 38.459818 -148.502244 -134.071387 -2.764888 173.880853 -151.400873 14.912686 -113.03275 152.551024 36.397546 -125.188264 175.436683 -12.578746 -92.188827 52.26188 -9.145928 -11.431891 -161.233152 -70.115637 -105.677952 -35.401689 -37.907336 5.017214 125.538577 49.553263 -114.806515 13.957082 42.826482 -11.927936 147.117379 2.335157 -179.044618 -6.72811 89.418896 -6.635599 80.86468 -54.467766 79.984932 74.950892 -54.371593 76.156473 125.092337 72.815914 40.942972 -158.739237 28.33117 90.34103 58.027005 -21.613853 -4.698635 5.685651 45.128244 -91.094257 -0.25279 -3.538267 0.308801 -3.208806 -16.743569 -11.012277 -13.575599 37.047655 70.846633 -90.019457 16.73973 -0.859156
40.0989 78.3372 -25.207400000000003 179.520966 -58.422556 -175.036254 -0.828187 -1.017343 -0.04921 2.78687 -2.21599 -15.747283 -7.568334 22.846879 -93.987573 38.448722 12.575307 118.795605 1.942299 -0.082264 -4.850065 6.425547 0.03343 0.59555 -155.633855 -2.800184 162.116285 -84.544477 30.709346 32.632348 149.41625 10.218747 -57.885677 -39.217012 68.213441 23.750617 -172.248583 -8.8862 90.872789 -6.592838 -46.198218 11.391355 -161.739115 -36.894441 125.45145 86.72425 -65.115844 31.045088 0.027351 -1.604085 -1.07089 3.36949 -6.160865 -0.563579 -2.531677 2.639247 0.530763 -159.030721 -2.091534 168.656568 30.25292 87.215572 6.790211 2.669472 2.155894 1.529045 13.571598 42.523488 -15.199298 -77.417812 -23.746844 -91.622888 -168.417012 41.4314 -110.716798 164.27528 16.270578 -135.190576 -82.196323 -53.487969 -32.995539 169.544554 -60.99136 -136.026409 9.520363 10.330158 -3.769805 64.374776 51.146787 -49.827387 1.257399 1.518772 -0.475413 158.823225 13.929156 -140.827327 2.755635 -0.244148 -1.806659 -12.702597 -26.109661 1.380018 139.063258 -5.991264 139.153249 157.232312 44.193772 146.20685 178.487163 78.771622 -0.0 -175.748125 31.20467 -39.792775 -45.622609 50.297218 -163.541819 -177.926878 28.972602 156.535663 -0.279702 -4.112882 0.338638 -4.407658 -17.882879 -180.0 3.44945 -46.749426 -72.5402 -134.318727 64.192806 38.691505
39.0419 78.4507 -25.107200000000002 179.022371 -59.666626 -174.101579 0.690455 -2.101634 -25.045769 1.63367 -0.96921 7.881618 12.716452 24.636485 127.574278 -29.595947 32.202829 -90.825179 1.025003 -0.068037 -7.594999 6.682628 0.007236 0.123933 -159.171198 -48.615944 171.04974 -62.947288 -12.457833 -20.643847 0.25933 -4.017968 -141.415361 163.328951 -28.912675 140.703799 5.412852 -6.737728 -2.387337 -98.231504 23.766391 85.668367 -151.320225 -16.382135 122.968615 86.237257 -65.711774 30.927651 -161.722245 -9.098041 144.292631 0.12428 14.631828 2.869335 -76.518195 -72.723738 -91.433442 -114.254899 -83.887544 -143.250566 5.284773 27.159893 9.4619 -2.985491 -18.427005 -6.2147 142.48761 40.759084 -147.062667 -133.845316 -11.593901 177.405611 109.521259 45.596981 -51.50348 -178.867854 -39.013355 -144.375893 5.477314 5.727116 2.944359 151.462523 -55.589209 -115.723287 155.091878 -18.145092 -121.447835 -167.11528 -52.437825 -103.068961 161.865488 -7.134682 -143.491227 -81.397881 -77.504422 -51.706153 3.074076 -9.831594 0.496594 -9.859861 24.94739 -4.50791 152.776612 73.988546 161.439562 157.148713 38.607959 145.693037 -135.267881 75.80358 -37.000246 170.985026 30.262601 -112.80275 -61.172955 -21.339222 -110.442926 16.679621 15.850377 -147.264687 -142.272637 78.166554 -32.001647 154.966884 58.210721 -17.561354 -42.418465 28.019766 -108.800661 -25.517513 26.755916 173.770674
37.9247 78.7201 -25.1537 178.801825 -61.432065 -173.427268 -0.217528 -7.746996 160.859619 -0.908685 -3.89486 -179.459518 4.849284 10.45762 18.633107 -11.925076 -25.148057 7.710345 0.128519 -0.011149 -9.915689 6.80959 -0.033454 -0.562303 2.831766 -25.853348 -5.247239 135.07387 49.123803 -73.273879 -139.824735 13.325997 17.818879 127.412633 -62.906605 109.801976 -15.214204 14.435855 1.411697 -21.773908 15.641986 21.832723 -151.398719 -16.570324 122.47732 -3.676871 27.997486 2.82365 173.528692 -66.301925 138.53784 -173.83442 -34.924608 141.673212 -147.036479 5.427626 177.53696 -144.12144 -42.434363 -168.709194 -147.052159 10.727625 -143.833217 -151.024927 11.275932 -142.142032 -3.726902 -43.421809 9.099817 -69.280493 23.607155 -12.622659 173.613758 40.01469 -95.749182 167.787774 4.351702 -139.391615 9.128092 10.151354 2.347278 38.831435 22.368678 -36.403589 21.403054 23.655591 -12.753958 86.929215 51.731263 -68.472464 161.82859 -6.337923 -143.765178 83.07968 64.10057 -75.347162 76.693005 70.135331 -91.381332 160.791388 -22.97265 -176.359449 12.5654 -27.676086 10.398472 142.868703 -2.714544 139.288946 179.278734 79.359958 -0.0 -174.733341 31.78078 170.072389 17.299401 -60.913048 41.289703 21.819708 -1.184468 162.865616 -0.22439 -4.415892 0.270373 -6.449845 -18.201447 180.0 18.326282 -43.367529 102.289414 145.554941 82.728767 -60.521946
